<svg width="213" height="42" viewBox="0 0 213 42" fill="none" xmlns="http://www.w3.org/2000/svg">
<path d="M64.185 22.3864H58.5813C57.9609 23.7857 57.6507 24.7559 57.6507 25.2971C57.6507 25.6931 57.7959 25.944 58.0863 26.0496C58.3899 26.1552 58.8387 26.208 59.4327 26.208V27H54.0073V26.208C54.3241 26.1684 54.5947 26.1156 54.8191 26.0496C55.0568 25.9836 55.2614 25.8912 55.433 25.7723C55.6178 25.6535 55.7762 25.5017 55.9082 25.3169C56.0402 25.1189 56.1656 24.8813 56.2844 24.6041L61.492 11.5553H62.9573L67.6897 23.119C67.9669 23.7923 68.1979 24.3203 68.3827 24.7031C68.5807 25.0859 68.7854 25.3829 68.9966 25.5941C69.221 25.7921 69.4718 25.9308 69.749 26.01C70.0394 26.0892 70.409 26.1486 70.8578 26.1882V27H63.3731V26.1882C64.0067 26.1618 64.4622 26.0958 64.7394 25.9902C65.0166 25.8846 65.1552 25.6733 65.1552 25.3565C65.1552 25.1717 65.109 24.9341 65.0166 24.6437C64.9242 24.3533 64.7988 23.9969 64.6404 23.5745L64.185 22.3864ZM59.0367 21.1983H63.7493L61.4722 15.1987H61.393L59.0367 21.1983ZM70.929 27V26.208C71.3778 26.1948 71.7342 26.1552 71.9982 26.0892C72.2755 26.0232 72.4867 25.911 72.6319 25.7525C72.7903 25.5941 72.8959 25.3697 72.9487 25.0793C73.0015 24.7889 73.0279 24.4127 73.0279 23.9507V14.8027C73.0279 14.3407 73.0081 13.971 72.9685 13.6938C72.9289 13.4034 72.8431 13.179 72.7111 13.0206C72.5923 12.849 72.4207 12.7368 72.1963 12.684C71.985 12.618 71.7012 12.5718 71.3448 12.5454V11.7533H77.7009C79.6942 11.7533 81.2254 12.0768 82.2947 12.7236C83.3771 13.3572 83.9184 14.268 83.9184 15.4561C83.9184 17.027 82.7897 18.1358 80.5324 18.7826V18.8618C81.2584 18.8618 81.9119 18.9675 82.4927 19.1787C83.0867 19.3767 83.5883 19.6605 83.9976 20.0301C84.4068 20.3997 84.7236 20.8353 84.948 21.337C85.1724 21.8386 85.2846 22.3864 85.2846 22.9804C85.2846 23.6537 85.1196 24.2411 84.7896 24.7427C84.4728 25.2443 84.0108 25.6667 83.4035 26.01C82.2287 26.67 80.6116 27 78.5523 27H70.929ZM78.6909 25.7921C80.8162 25.7921 81.8789 24.8351 81.8789 22.921C81.8789 21.7462 81.4961 20.8881 80.7304 20.3469C80.3344 20.0697 79.8196 19.8717 79.186 19.7529C78.5655 19.6341 77.7999 19.5747 76.8891 19.5747H75.9386V23.5349C75.9386 24.3533 76.1498 24.9341 76.5722 25.2773C76.9947 25.6205 77.7009 25.7921 78.6909 25.7921ZM77.1069 18.3866C77.7009 18.3866 78.2157 18.3338 78.6513 18.2282C79.087 18.1094 79.4566 17.9444 79.7602 17.7332C80.3938 17.2976 80.7106 16.6178 80.7106 15.6937C80.7106 14.7301 80.473 14.037 79.9978 13.6146C79.5226 13.179 78.7569 12.9612 77.7009 12.9612H76.295C76.0574 12.9612 75.9386 13.0734 75.9386 13.2978V18.3866H77.1069ZM95.4004 11.5553C96.5884 11.5553 97.6973 11.7599 98.7269 12.1692C99.7566 12.5784 100.648 13.1394 101.4 13.8522C102.166 14.5651 102.766 15.4033 103.202 16.3669C103.638 17.3306 103.855 18.3734 103.855 19.4955C103.855 20.5647 103.631 21.568 103.182 22.5052C102.747 23.4424 102.146 24.2609 101.38 24.9605C100.628 25.6469 99.7368 26.1948 98.7071 26.604C97.6775 27 96.5752 27.198 95.4004 27.198C94.2255 27.198 93.1233 27 92.0936 26.604C91.064 26.1948 90.1664 25.6469 89.4007 24.9605C88.6351 24.2609 88.0345 23.4424 87.5988 22.5052C87.1632 21.568 86.9454 20.5647 86.9454 19.4955C86.9454 18.3734 87.1632 17.3306 87.5988 16.3669C88.0345 15.4033 88.6285 14.5651 89.3809 13.8522C90.1466 13.1394 91.0442 12.5784 92.0738 12.1692C93.1035 11.7599 94.2123 11.5553 95.4004 11.5553ZM95.4004 25.911C96.166 25.911 96.859 25.7657 97.4795 25.4753C98.0999 25.1717 98.6279 24.7493 99.0635 24.2081C99.4992 23.6537 99.8292 22.987 100.054 22.2082C100.291 21.4162 100.41 20.5317 100.41 19.5549C100.41 18.5252 100.291 17.6012 100.054 16.7828C99.8292 15.9511 99.4992 15.2449 99.0635 14.6641C98.6279 14.07 98.0999 13.6212 97.4795 13.3176C96.859 13.0008 96.166 12.8424 95.4004 12.8424C94.6216 12.8424 93.9219 13.0008 93.3015 13.3176C92.6943 13.6212 92.1728 14.07 91.7372 14.6641C91.3016 15.2449 90.965 15.9511 90.7274 16.7828C90.503 17.6012 90.3908 18.5252 90.3908 19.5549C90.3908 20.5317 90.503 21.4162 90.7274 22.2082C90.965 22.987 91.3016 23.6537 91.7372 24.2081C92.1728 24.7493 92.6943 25.1717 93.3015 25.4753C93.9219 25.7657 94.6216 25.911 95.4004 25.911ZM113.406 27.198C112.218 27.198 111.143 27.0264 110.179 26.6832C109.228 26.3268 108.417 25.8251 107.743 25.1783C107.083 24.5183 106.569 23.7263 106.199 22.8022C105.843 21.865 105.664 20.8155 105.664 19.6539C105.664 18.4526 105.856 17.357 106.239 16.3669C106.635 15.3637 107.182 14.5057 107.882 13.7928C108.582 13.08 109.42 12.5322 110.397 12.1494C111.374 11.7533 112.456 11.5553 113.644 11.5553C114.463 11.5553 115.241 11.6675 115.981 11.8919C116.72 12.1164 117.518 12.4794 118.376 12.981L118.753 11.7533H119.466V16.763H118.475C118.211 15.5221 117.677 14.5585 116.872 13.872C116.08 13.1856 115.083 12.8424 113.882 12.8424C112.364 12.8424 111.182 13.4298 110.337 14.6047C109.506 15.7663 109.09 17.3966 109.09 19.4955C109.09 21.5548 109.499 23.1322 110.318 24.2279C111.136 25.3235 112.324 25.8714 113.882 25.8714C115.004 25.8714 115.875 25.5875 116.495 25.0199C117.129 24.4391 117.446 23.6405 117.446 22.624C117.446 22.0168 117.287 21.5746 116.971 21.2974C116.654 21.0069 116.119 20.8287 115.367 20.7627V19.9707H121.782V20.7627C121.135 20.7627 120.687 20.9079 120.436 21.1983C120.185 21.4756 120.06 21.9838 120.06 22.723V25.3565C119.769 25.3565 119.525 25.3697 119.327 25.3961C119.129 25.4093 118.931 25.4489 118.733 25.5149C118.548 25.5677 118.337 25.6601 118.099 25.7921C117.862 25.9242 117.565 26.0958 117.208 26.307C116.192 26.901 114.925 27.198 113.406 27.198ZM131.728 22.3864H126.125C125.504 23.7857 125.194 24.7559 125.194 25.2971C125.194 25.6931 125.339 25.944 125.63 26.0496C125.933 26.1552 126.382 26.208 126.976 26.208V27H121.551V26.208C121.867 26.1684 122.138 26.1156 122.362 26.0496C122.6 25.9836 122.805 25.8912 122.976 25.7723C123.161 25.6535 123.32 25.5017 123.452 25.3169C123.584 25.1189 123.709 24.8813 123.828 24.6041L129.035 11.5553H130.501L135.233 23.119C135.51 23.7923 135.741 24.3203 135.926 24.7031C136.124 25.0859 136.329 25.3829 136.54 25.5941C136.764 25.7921 137.015 25.9308 137.292 26.01C137.583 26.0892 137.952 26.1486 138.401 26.1882V27H130.916V26.1882C131.55 26.1618 132.006 26.0958 132.283 25.9902C132.56 25.8846 132.699 25.6733 132.699 25.3565C132.699 25.1717 132.652 24.9341 132.56 24.6437C132.468 24.3533 132.342 23.9969 132.184 23.5745L131.728 22.3864ZM126.58 21.1983H131.293L129.016 15.1987H128.936L126.58 21.1983ZM151.354 11.7533H152.324L151.928 16.763H151.136C150.859 15.5485 150.318 14.5915 149.513 13.8918C148.721 13.1922 147.757 12.8424 146.622 12.8424C145.843 12.8424 145.15 13.0008 144.543 13.3176C143.935 13.6212 143.421 14.0634 142.998 14.6443C142.589 15.2119 142.272 15.9115 142.048 16.7432C141.836 17.5616 141.731 18.4856 141.731 19.5153C141.731 21.5614 142.147 23.1388 142.978 24.2477C143.823 25.3433 145.064 25.8912 146.701 25.8912C148.021 25.8912 149.11 25.5347 149.968 24.8219C150.839 24.1091 151.46 23.0464 151.829 21.634H152.701V27H151.77L151.493 25.4357C150.041 26.6106 148.278 27.198 146.206 27.198C145.005 27.198 143.916 27.0198 142.939 26.6634C141.962 26.307 141.13 25.8053 140.444 25.1585C139.757 24.4985 139.223 23.6999 138.84 22.7626C138.47 21.8254 138.285 20.7825 138.285 19.6341C138.285 18.4328 138.483 17.3372 138.88 16.3471C139.276 15.3571 139.83 14.5057 140.543 13.7928C141.269 13.08 142.127 12.5322 143.117 12.1494C144.12 11.7533 145.229 11.5553 146.443 11.5553C147.249 11.5553 148.001 11.6675 148.701 11.8919C149.4 12.1164 150.159 12.4794 150.978 12.981L151.354 11.7533ZM155.656 14.2482C155.458 13.905 155.273 13.6212 155.101 13.3968C154.943 13.1724 154.778 13.0008 154.606 12.882C154.435 12.75 154.25 12.6642 154.052 12.6246C153.854 12.5718 153.629 12.5454 153.379 12.5454V11.7533H160.032V12.5454C159.477 12.5454 159.088 12.5982 158.863 12.7038C158.639 12.8094 158.527 12.9678 158.527 13.179C158.527 13.311 158.566 13.4694 158.646 13.6542C158.725 13.839 158.85 14.0898 159.022 14.4067L161.853 19.8123H161.932L164.427 15.6541C164.863 14.9149 165.167 14.3671 165.338 14.0106C165.51 13.641 165.596 13.3506 165.596 13.1394C165.596 12.915 165.49 12.7632 165.279 12.684C165.081 12.5916 164.705 12.5454 164.15 12.5454V11.7533H169.12V12.5454C168.83 12.5454 168.566 12.5916 168.328 12.684C168.091 12.7764 167.84 12.9612 167.576 13.2384C167.325 13.5024 167.035 13.8786 166.705 14.3671C166.388 14.8423 166.005 15.4693 165.556 16.2481L162.665 21.1983V23.218C162.665 23.8781 162.692 24.4061 162.744 24.8021C162.81 25.1981 162.916 25.5017 163.061 25.7129C163.22 25.911 163.431 26.043 163.695 26.109C163.959 26.175 164.302 26.208 164.724 26.208V27H157.675V26.208C158.085 26.208 158.421 26.175 158.685 26.109C158.962 26.043 159.18 25.911 159.339 25.7129C159.497 25.5149 159.603 25.2311 159.655 24.8615C159.721 24.4787 159.754 23.9771 159.754 23.3566V21.535L155.656 14.2482ZM168.725 25.7327C168.725 25.3103 168.863 24.9539 169.141 24.6635C169.431 24.3599 169.787 24.2081 170.21 24.2081C170.645 24.2081 171.009 24.3599 171.299 24.6635C171.589 24.9539 171.735 25.3103 171.735 25.7327C171.735 26.142 171.589 26.4918 171.299 26.7822C171.009 27.0594 170.645 27.198 170.21 27.198C169.787 27.198 169.431 27.0594 169.141 26.7822C168.863 26.4918 168.725 26.142 168.725 25.7327ZM180.581 27H173.512V26.208C173.961 26.1948 174.317 26.1552 174.581 26.0892C174.858 26.01 175.07 25.8714 175.215 25.6733C175.36 25.4753 175.459 25.1981 175.512 24.8417C175.565 24.4721 175.591 23.9771 175.591 23.3566V15.3967C175.591 14.8423 175.565 14.3869 175.512 14.0304C175.472 13.6608 175.386 13.3704 175.254 13.1592C175.122 12.948 174.931 12.8028 174.68 12.7236C174.443 12.6312 174.119 12.5718 173.71 12.5454V11.7533H180.383V12.5454C179.974 12.5718 179.644 12.6312 179.393 12.7236C179.155 12.8028 178.97 12.948 178.838 13.1592C178.706 13.3704 178.614 13.6608 178.561 14.0304C178.522 14.3869 178.502 14.8423 178.502 15.3967V23.3566C178.502 23.9771 178.522 24.4721 178.561 24.8417C178.614 25.1981 178.713 25.4753 178.858 25.6733C179.017 25.8714 179.228 26.01 179.492 26.0892C179.769 26.1552 180.132 26.1948 180.581 26.208V27ZM190.402 11.5553C191.59 11.5553 192.699 11.7599 193.728 12.1692C194.758 12.5784 195.649 13.1394 196.402 13.8522C197.167 14.5651 197.768 15.4033 198.203 16.3669C198.639 17.3306 198.857 18.3734 198.857 19.4955C198.857 20.5647 198.632 21.568 198.184 22.5052C197.748 23.4424 197.147 24.2609 196.382 24.9605C195.629 25.6469 194.738 26.1948 193.709 26.604C192.679 27 191.577 27.198 190.402 27.198C189.227 27.198 188.125 27 187.095 26.604C186.066 26.1948 185.168 25.6469 184.402 24.9605C183.637 24.2609 183.036 23.4424 182.6 22.5052C182.165 21.568 181.947 20.5647 181.947 19.4955C181.947 18.3734 182.165 17.3306 182.6 16.3669C183.036 15.4033 183.63 14.5651 184.382 13.8522C185.148 13.1394 186.046 12.5784 187.075 12.1692C188.105 11.7599 189.214 11.5553 190.402 11.5553ZM190.402 25.911C191.168 25.911 191.861 25.7657 192.481 25.4753C193.101 25.1717 193.629 24.7493 194.065 24.2081C194.501 23.6537 194.831 22.987 195.055 22.2082C195.293 21.4162 195.412 20.5317 195.412 19.5549C195.412 18.5252 195.293 17.6012 195.055 16.7828C194.831 15.9511 194.501 15.2449 194.065 14.6641C193.629 14.07 193.101 13.6212 192.481 13.3176C191.861 13.0008 191.168 12.8424 190.402 12.8424C189.623 12.8424 188.923 13.0008 188.303 13.3176C187.696 13.6212 187.174 14.07 186.739 14.6641C186.303 15.2449 185.967 15.9511 185.729 16.7828C185.505 17.6012 185.392 18.5252 185.392 19.5549C185.392 20.5317 185.505 21.4162 185.729 22.2082C185.967 22.987 186.303 23.6537 186.739 24.2081C187.174 24.7493 187.696 25.1717 188.303 25.4753C188.923 25.7657 189.623 25.911 190.402 25.911Z" fill="white"/>
<path d="M88.9556 29.3659H89.4414L89.2431 31.8743H88.8465C88.7077 31.2662 88.4367 30.787 88.0335 30.4367C87.637 30.0864 87.1545 29.9112 86.586 29.9112C86.1961 29.9112 85.8491 29.9905 85.545 30.1492C85.241 30.3012 84.9832 30.5226 84.7717 30.8134C84.5668 31.0976 84.4082 31.4479 84.2958 31.8643C84.19 32.2741 84.1372 32.7368 84.1372 33.2524C84.1372 34.2768 84.3454 35.0667 84.7618 35.6219C85.1848 36.1705 85.8061 36.4448 86.6257 36.4448C87.2866 36.4448 87.8319 36.2663 88.2616 35.9094C88.6978 35.5525 89.0084 35.0204 89.1935 34.3132H89.6297V37H89.1638L89.025 36.2168C88.2979 36.805 87.4155 37.0991 86.3778 37.0991C85.7764 37.0991 85.2311 37.0099 84.7419 36.8315C84.2528 36.653 83.8364 36.4018 83.4927 36.078C83.149 35.7475 82.8813 35.3476 82.6897 34.8783C82.5046 34.409 82.4121 33.8869 82.4121 33.3118C82.4121 32.7104 82.5112 32.1618 82.7095 31.6661C82.9078 31.1703 83.1854 30.744 83.5423 30.3871C83.9058 30.0302 84.3355 29.7559 84.8312 29.5642C85.3335 29.3659 85.8887 29.2668 86.4968 29.2668C86.9 29.2668 87.2767 29.323 87.627 29.4353C87.9773 29.5477 88.3574 29.7294 88.7672 29.9806L88.9556 29.3659ZM98.0891 35.4038C98.0891 35.6549 98.099 35.8598 98.1189 36.0185C98.1453 36.1705 98.1949 36.2895 98.2676 36.3754C98.3469 36.4547 98.4526 36.5109 98.5848 36.5439C98.7236 36.577 98.9054 36.5968 99.1301 36.6034V37H95.4915V36.6034C95.7361 36.5968 95.9311 36.577 96.0765 36.5439C96.2285 36.5109 96.3442 36.4547 96.4235 36.3754C96.5094 36.2961 96.5656 36.1837 96.592 36.0383C96.6185 35.8929 96.6317 35.7045 96.6317 35.4732V33.4011H92.9535V35.4038C92.9535 35.6549 92.9667 35.8598 92.9931 36.0185C93.0196 36.1705 93.0724 36.2895 93.1517 36.3754C93.2311 36.4547 93.3434 36.5109 93.4888 36.5439C93.6409 36.577 93.8391 36.5968 94.0837 36.6034V37H90.455V36.6034C90.6798 36.5968 90.8582 36.577 90.9904 36.5439C91.1292 36.5109 91.235 36.4547 91.3077 36.3754C91.3804 36.2961 91.43 36.1837 91.4564 36.0383C91.4828 35.8929 91.496 35.7045 91.496 35.4732V30.8927C91.496 30.6614 91.4828 30.4763 91.4564 30.3375C91.4366 30.1921 91.3936 30.0798 91.3275 30.0004C91.2614 29.9145 91.1656 29.8583 91.04 29.8319C90.921 29.7988 90.7624 29.7757 90.5641 29.7625V29.3659H93.9846V29.7625C93.7598 29.7691 93.5781 29.7889 93.4393 29.822C93.3071 29.855 93.2046 29.9145 93.1319 30.0004C93.0592 30.0864 93.0096 30.2053 92.9832 30.3574C92.9634 30.5094 92.9535 30.711 92.9535 30.9621V32.7864H96.6317V30.8927C96.6317 30.6614 96.6185 30.4763 96.592 30.3375C96.5656 30.1921 96.516 30.0798 96.4433 30.0004C96.3706 29.9145 96.2649 29.8583 96.1261 29.8319C95.9939 29.7988 95.8154 29.7757 95.5907 29.7625V29.3659H99.0211V29.7625C98.8228 29.7691 98.6608 29.7889 98.5353 29.822C98.4163 29.855 98.3238 29.9145 98.2577 30.0004C98.1916 30.0864 98.1453 30.2053 98.1189 30.3574C98.099 30.5094 98.0891 30.711 98.0891 30.9621V35.4038ZM104.447 34.6899H101.642C101.331 35.3906 101.176 35.8764 101.176 36.1474C101.176 36.3457 101.248 36.4712 101.394 36.5241C101.546 36.577 101.77 36.6034 102.068 36.6034V37H99.3513V36.6034C99.51 36.5836 99.6455 36.5572 99.7578 36.5241C99.8768 36.4911 99.9793 36.4448 100.065 36.3853C100.158 36.3258 100.237 36.2498 100.303 36.1573C100.369 36.0581 100.432 35.9392 100.492 35.8004L103.099 29.2668H103.833L106.202 35.0568C106.341 35.3939 106.457 35.6583 106.549 35.8499C106.648 36.0416 106.751 36.1903 106.857 36.2961C106.969 36.3952 107.094 36.4646 107.233 36.5043C107.379 36.5439 107.564 36.5737 107.788 36.5935V37H104.041V36.5935C104.358 36.5803 104.586 36.5472 104.725 36.4944C104.864 36.4415 104.933 36.3357 104.933 36.1771C104.933 36.0846 104.91 35.9656 104.864 35.8202C104.817 35.6748 104.755 35.4963 104.675 35.2848L104.447 34.6899ZM101.87 34.0951H104.229L103.089 31.091H103.049L101.87 34.0951ZM114.832 31.5471H114.405C114.386 31.2232 114.336 30.9555 114.257 30.744C114.184 30.5259 114.078 30.3541 113.939 30.2285C113.801 30.0963 113.632 30.0071 113.434 29.9608C113.235 29.9079 113.004 29.8815 112.74 29.8815C112.482 29.8815 112.274 29.8881 112.115 29.9013C111.963 29.9079 111.844 29.9244 111.758 29.9509C111.679 29.9707 111.626 30.0004 111.6 30.0401C111.573 30.0798 111.56 30.1293 111.56 30.1888V35.384C111.56 35.5955 111.573 35.7772 111.6 35.9292C111.633 36.0813 111.695 36.2068 111.788 36.306C111.88 36.3985 112.016 36.4712 112.194 36.5241C112.373 36.5704 112.608 36.5968 112.898 36.6034V37H108.744V36.6034C109.042 36.5968 109.28 36.5704 109.458 36.5241C109.637 36.4712 109.772 36.3985 109.865 36.306C109.964 36.2068 110.026 36.0813 110.053 35.9292C110.086 35.7772 110.102 35.5955 110.102 35.384V30.1888C110.102 30.1293 110.089 30.0798 110.063 30.0401C110.043 30.0004 109.997 29.9707 109.924 29.9509C109.851 29.9244 109.746 29.9079 109.607 29.9013C109.475 29.8881 109.299 29.8815 109.081 29.8815C108.843 29.8815 108.615 29.8947 108.397 29.9211C108.179 29.941 107.987 30.0071 107.822 30.1194C107.657 30.2252 107.521 30.3904 107.416 30.6151C107.317 30.8332 107.264 31.1439 107.257 31.5471H106.87L106.97 29.3659H114.733L114.832 31.5471ZM118.584 30.8927C118.584 30.6614 118.571 30.4763 118.544 30.3375C118.525 30.1921 118.482 30.0798 118.415 30.0004C118.349 29.9145 118.254 29.8583 118.128 29.8319C118.009 29.7988 117.847 29.7757 117.642 29.7625V29.3659H120.983V29.7625C120.778 29.7691 120.613 29.7889 120.488 29.822C120.362 29.855 120.266 29.9145 120.2 30.0004C120.134 30.0864 120.091 30.2053 120.071 30.3574C120.051 30.5094 120.041 30.711 120.041 30.9621V37.0198C120.041 37.8526 119.83 38.4872 119.407 38.9234C118.984 39.3596 118.353 39.5777 117.513 39.5777C116.912 39.5777 116.449 39.4753 116.125 39.2704C115.795 39.0655 115.63 38.8044 115.63 38.4872C115.63 38.2955 115.692 38.1468 115.818 38.041C115.937 37.9419 116.086 37.8923 116.264 37.8923C116.416 37.8923 116.538 37.932 116.631 38.0113C116.717 38.0906 116.826 38.2393 116.958 38.4574C117.09 38.6755 117.209 38.8209 117.315 38.8936C117.421 38.9664 117.55 39.0027 117.702 39.0027C117.986 39.0027 118.204 38.8474 118.356 38.5367C118.508 38.2261 118.584 37.7898 118.584 37.228V30.8927ZM128.838 33.9265C128.838 34.4884 128.775 34.9709 128.649 35.374C128.53 35.7706 128.342 36.0978 128.084 36.3556C127.826 36.6133 127.493 36.8017 127.083 36.9207C126.68 37.0397 126.194 37.0991 125.625 37.0991C124.561 37.0991 123.781 36.8777 123.286 36.4349C122.797 35.9854 122.552 35.2716 122.552 34.2934V31.5768C122.552 31.3191 122.549 31.1042 122.542 30.9324C122.535 30.7539 122.526 30.6052 122.512 30.4862C122.499 30.3673 122.479 30.2714 122.453 30.1987C122.433 30.1194 122.407 30.0533 122.374 30.0004C122.314 29.9079 122.228 29.8451 122.116 29.8121C122.003 29.779 121.832 29.7625 121.6 29.7625V29.3659H125.16V29.7625C124.882 29.7625 124.677 29.779 124.545 29.8121C124.413 29.8385 124.31 29.8947 124.237 29.9806C124.191 30.0335 124.152 30.0996 124.118 30.1789C124.092 30.2516 124.069 30.3507 124.049 30.4763C124.036 30.5953 124.026 30.744 124.019 30.9225C124.013 31.1009 124.009 31.3191 124.009 31.5768V34.1744C124.009 34.9279 124.168 35.4864 124.485 35.8499C124.809 36.2068 125.305 36.3853 125.972 36.3853C127.334 36.3853 128.015 35.6285 128.015 34.1149V31.8247C128.015 31.5471 128.008 31.3091 127.995 31.1109C127.988 30.9126 127.972 30.744 127.945 30.6052C127.926 30.4664 127.896 30.3507 127.856 30.2582C127.823 30.1657 127.78 30.0897 127.727 30.0302C127.635 29.9376 127.516 29.8716 127.37 29.8319C127.225 29.7856 127.023 29.7625 126.766 29.7625V29.3659H129.978V29.7625C129.733 29.7625 129.545 29.7823 129.413 29.822C129.281 29.855 129.178 29.9178 129.105 30.0104C129.053 30.0698 129.01 30.1492 128.977 30.2483C128.943 30.3408 128.917 30.4598 128.897 30.6052C128.877 30.744 128.861 30.9126 128.848 31.1109C128.841 31.3091 128.838 31.5471 128.838 31.8247V33.9265ZM136.947 31.2794C136.947 31.828 136.788 32.2874 136.471 32.6575C136.153 33.0276 135.648 33.2755 134.954 33.4011L137.254 36.0383C137.413 36.2234 137.601 36.3655 137.819 36.4646C138.037 36.5572 138.259 36.6034 138.483 36.6034V37H136.134L133.675 33.986C133.51 33.7877 133.364 33.6555 133.239 33.5894C133.12 33.5167 133.007 33.4804 132.901 33.4804V35.4236C132.901 35.6682 132.918 35.8698 132.951 36.0284C132.984 36.1804 133.05 36.2994 133.149 36.3853C133.248 36.4712 133.391 36.5307 133.576 36.5638C133.767 36.5902 134.022 36.6034 134.339 36.6034V37H130.403V36.6034C130.621 36.6034 130.796 36.5902 130.929 36.5638C131.067 36.5307 131.173 36.4745 131.246 36.3952C131.325 36.3093 131.378 36.1936 131.404 36.0482C131.431 35.8962 131.444 35.7045 131.444 35.4732V30.8927C131.444 30.6614 131.434 30.4763 131.414 30.3375C131.394 30.1921 131.352 30.0798 131.285 30.0004C131.219 29.9145 131.124 29.8583 130.998 29.8319C130.879 29.7988 130.717 29.7757 130.512 29.7625V29.3659H133.942C134.901 29.3659 135.641 29.5345 136.163 29.8716C136.685 30.2086 136.947 30.6779 136.947 31.2794ZM132.901 32.8855H133.546C134.167 32.8855 134.63 32.7666 134.934 32.5286C135.245 32.2841 135.4 31.8842 135.4 31.329C135.4 30.906 135.271 30.5656 135.013 30.3078C134.755 30.05 134.399 29.9211 133.942 29.9211H133.08C132.961 29.9211 132.901 29.9773 132.901 30.0897V32.8855ZM142.037 37H138.497V36.6034C138.722 36.5968 138.901 36.577 139.033 36.5439C139.172 36.5043 139.277 36.4349 139.35 36.3357C139.423 36.2366 139.472 36.0978 139.499 35.9193C139.525 35.7343 139.538 35.4864 139.538 35.1758V31.1902C139.538 30.9126 139.525 30.6845 139.499 30.5061C139.479 30.321 139.436 30.1756 139.37 30.0698C139.304 29.9641 139.208 29.8914 139.082 29.8517C138.963 29.8055 138.802 29.7757 138.597 29.7625V29.3659H141.938V29.7625C141.733 29.7757 141.568 29.8055 141.442 29.8517C141.323 29.8914 141.231 29.9641 141.164 30.0698C141.098 30.1756 141.052 30.321 141.026 30.5061C141.006 30.6845 140.996 30.9126 140.996 31.1902V35.1758C140.996 35.4864 141.006 35.7343 141.026 35.9193C141.052 36.0978 141.102 36.2366 141.174 36.3357C141.254 36.4349 141.359 36.5043 141.492 36.5439C141.63 36.577 141.812 36.5968 142.037 36.6034V37ZM139.34 28.7711L140.589 27.8094C140.722 27.7102 140.867 27.6309 141.026 27.5714C141.184 27.5119 141.349 27.4822 141.521 27.4822C141.706 27.4822 141.845 27.5152 141.938 27.5813C142.037 27.6474 142.086 27.7367 142.086 27.849C142.086 28.001 142.027 28.1266 141.908 28.2258C141.789 28.3183 141.558 28.4075 141.214 28.4935L140.064 28.7711H139.34ZM142.738 37V36.6034C142.956 36.5968 143.131 36.5803 143.263 36.5539C143.402 36.5208 143.508 36.4646 143.581 36.3853C143.66 36.2994 143.713 36.187 143.739 36.0482C143.766 35.9028 143.779 35.7111 143.779 35.4732V30.8927C143.779 30.6614 143.769 30.4763 143.749 30.3375C143.729 30.1921 143.686 30.0798 143.62 30.0004C143.554 29.9145 143.462 29.8583 143.343 29.8319C143.23 29.7988 143.082 29.7757 142.897 29.7625V29.3659H146.664C147.299 29.3659 147.884 29.4651 148.419 29.6634C148.954 29.8616 149.417 30.1359 149.807 30.4862C150.197 30.8366 150.501 31.253 150.719 31.7355C150.937 32.218 151.046 32.7434 151.046 33.3118C151.046 33.8538 150.944 34.3529 150.739 34.8089C150.534 35.2584 150.246 35.645 149.876 35.9689C149.513 36.2928 149.073 36.5472 148.558 36.7323C148.049 36.9108 147.487 37 146.872 37H142.738ZM145.405 29.9707C145.293 29.9707 145.236 30.0269 145.236 30.1392V35.265C145.236 35.6483 145.355 35.9326 145.593 36.1176C145.831 36.3027 146.198 36.3952 146.694 36.3952C147.56 36.3952 148.224 36.1341 148.687 35.612C149.156 35.0898 149.391 34.3297 149.391 33.3317C149.391 32.8029 149.328 32.3303 149.202 31.9139C149.077 31.4975 148.895 31.1472 148.657 30.863C148.419 30.5722 148.128 30.3507 147.784 30.1987C147.447 30.0467 147.067 29.9707 146.644 29.9707H145.405ZM155.282 37H151.742V36.6034C151.967 36.5968 152.146 36.577 152.278 36.5439C152.417 36.5043 152.522 36.4349 152.595 36.3357C152.668 36.2366 152.717 36.0978 152.744 35.9193C152.77 35.7343 152.783 35.4864 152.783 35.1758V31.1902C152.783 30.9126 152.77 30.6845 152.744 30.5061C152.724 30.321 152.681 30.1756 152.615 30.0698C152.549 29.9641 152.453 29.8914 152.327 29.8517C152.208 29.8055 152.047 29.7757 151.842 29.7625V29.3659H155.183V29.7625C154.978 29.7757 154.813 29.8055 154.687 29.8517C154.568 29.8914 154.476 29.9641 154.409 30.0698C154.343 30.1756 154.297 30.321 154.271 30.5061C154.251 30.6845 154.241 30.9126 154.241 31.1902V35.1758C154.241 35.4864 154.251 35.7343 154.271 35.9193C154.297 36.0978 154.347 36.2366 154.419 36.3357C154.499 36.4349 154.604 36.5043 154.737 36.5439C154.875 36.577 155.057 36.5968 155.282 36.6034V37ZM162.549 29.3659H163.034L162.836 31.8743H162.44C162.301 31.2662 162.03 30.787 161.627 30.4367C161.23 30.0864 160.747 29.9112 160.179 29.9112C159.789 29.9112 159.442 29.9905 159.138 30.1492C158.834 30.3012 158.576 30.5226 158.365 30.8134C158.16 31.0976 158.001 31.4479 157.889 31.8643C157.783 32.2741 157.73 32.7368 157.73 33.2524C157.73 34.2768 157.938 35.0667 158.355 35.6219C158.778 36.1705 159.399 36.4448 160.219 36.4448C160.88 36.4448 161.425 36.2663 161.855 35.9094C162.291 35.5525 162.601 35.0204 162.787 34.3132H163.223V37H162.757L162.618 36.2168C161.891 36.805 161.009 37.0991 159.971 37.0991C159.369 37.0991 158.824 37.0099 158.335 36.8315C157.846 36.653 157.429 36.4018 157.086 36.078C156.742 35.7475 156.474 35.3476 156.283 34.8783C156.098 34.409 156.005 33.8869 156.005 33.3118C156.005 32.7104 156.104 32.1618 156.303 31.6661C156.501 31.1703 156.778 30.744 157.135 30.3871C157.499 30.0302 157.928 29.7559 158.424 29.5642C158.927 29.3659 159.482 29.2668 160.09 29.2668C160.493 29.2668 160.87 29.323 161.22 29.4353C161.57 29.5477 161.95 29.7294 162.36 29.9806L162.549 29.3659ZM168.381 29.2668C168.976 29.2668 169.531 29.3692 170.046 29.5741C170.562 29.779 171.008 30.0599 171.385 30.4168C171.768 30.7738 172.069 31.1935 172.287 31.676C172.505 32.1585 172.614 32.6806 172.614 33.2424C172.614 33.7778 172.502 34.2802 172.277 34.7494C172.059 35.2187 171.758 35.6285 171.375 35.9788C170.998 36.3225 170.552 36.5968 170.036 36.8017C169.521 37 168.969 37.0991 168.381 37.0991C167.792 37.0991 167.241 37 166.725 36.8017C166.209 36.5968 165.76 36.3225 165.377 35.9788C164.993 35.6285 164.693 35.2187 164.474 34.7494C164.256 34.2802 164.147 33.7778 164.147 33.2424C164.147 32.6806 164.256 32.1585 164.474 31.676C164.693 31.1935 164.99 30.7738 165.367 30.4168C165.75 30.0599 166.199 29.779 166.715 29.5741C167.231 29.3692 167.786 29.2668 168.381 29.2668ZM168.381 36.4547C168.764 36.4547 169.111 36.382 169.422 36.2366C169.732 36.0846 169.997 35.8731 170.215 35.6021C170.433 35.3245 170.598 34.9907 170.711 34.6007C170.83 34.2041 170.889 33.7613 170.889 33.2722C170.889 32.7566 170.83 32.294 170.711 31.8842C170.598 31.4678 170.433 31.1142 170.215 30.8233C169.997 30.5259 169.732 30.3012 169.422 30.1492C169.111 29.9905 168.764 29.9112 168.381 29.9112C167.991 29.9112 167.64 29.9905 167.33 30.1492C167.026 30.3012 166.765 30.5259 166.547 30.8233C166.328 31.1142 166.16 31.4678 166.041 31.8842C165.929 32.294 165.872 32.7566 165.872 33.2722C165.872 33.7613 165.929 34.2041 166.041 34.6007C166.16 34.9907 166.328 35.3245 166.547 35.6021C166.765 35.8731 167.026 36.0846 167.33 36.2366C167.64 36.382 167.991 36.4547 168.381 36.4547Z" fill="white"/>
<g clip-path="url(#clip0_603_15)">
<rect width="51" height="41.5922" fill="black"/>
<path d="M4.44873 24.6331L5.48295 22.7527C9.92069 21.8877 17.1101 21.8282 20.1501 21.9065C20.1971 22.3296 20.3475 23.3074 20.5732 23.8339C15.2328 23.7211 7.59841 24.3197 4.44873 24.6331Z" fill="white"/>
<path d="M24.7929 34.3173V32.672L15.3439 7.75665L8.19837 21.3895H5.94189C8.59013 15.9991 13.9994 4.93605 14.4507 3.80781C14.902 2.67957 14.8895 1.95875 14.8268 1.73937L14.0746 0H21.6433L21.1261 1.50432L27.0494 16.7356C28.5224 20.5434 31.6658 28.7795 32.4556 31.2617C33.3205 33.0669 33.9442 34.0509 34.1479 34.3173C34.2889 34.38 34.6556 34.6652 34.9941 35.3045C35.3325 35.9439 35.2918 36.3544 35.2291 36.4798H23.4296C23.8809 35.1259 24.5265 34.474 24.7929 34.3173Z" fill="white"/>
<path d="M25.8379 10.2953C25.9883 9.9944 25.5245 8.66557 25.2738 8.03882H37.3554C39.1981 8.03882 41.0691 8.38354 41.7743 8.5559C42.5578 8.80664 44.4821 9.54312 45.9112 10.4833C47.3403 11.4235 48.3244 13.1942 48.6378 13.962C48.9042 14.6045 49.2771 16.5006 48.6378 18.9451C47.9984 21.3896 45.1747 22.941 43.8428 23.4111L45.5351 23.8812C46.4126 24.3199 48.1677 25.2915 49.437 26.7017C50.4709 27.9711 50.8943 30.0708 50.9884 31.3558C51.0978 32.9854 50.4709 36.6867 47.0865 38.4543C43.7017 40.2218 40.129 40.6638 38.7657 40.6638H20.0557L20.1497 35.4927C20.2124 35.5396 20.3753 35.6807 20.5258 35.8687C21.8045 37.7491 22.6256 38.3133 22.8763 38.3602L29.7397 38.2192L35.898 37.9842C36.6659 37.8432 38.587 37.2508 40.129 36.0097C41.6709 34.7687 42.0564 33.0795 42.0564 32.39C42.072 31.6222 41.9812 29.7386 41.4923 28.3471C41.0033 26.9556 39.6902 26.1376 39.0948 25.9026C38.0417 25.3385 36.1174 24.9154 35.2869 24.7743C34.5034 24.6804 32.6074 24.4923 31.2911 24.4923C31.2159 23.5521 30.821 22.7843 30.6329 22.5179C32.6387 22.5179 37.0169 22.2734 38.4836 21.2956C39.9503 20.3178 40.6304 18.7257 40.7871 18.052C40.9595 17.1274 40.9657 14.7894 39.6118 12.8338C38.258 10.8782 34.4094 10.452 32.6543 10.4833L25.8379 10.2953Z" fill="white"/>
<path d="M1.58092 36.0098C1.28005 34.4302 4.52688 28.3314 6.18788 25.4795L3.69639 25.9026L2.94422 26.9838C2.48979 27.877 1.39288 30.1429 0.640728 32.0609C-0.111427 33.9789 -0.0487511 36.0881 0.0766055 36.9029C0.484026 38.1722 1.79719 40.8894 3.97845 41.2278C5.20071 41.3689 7.31617 41.0398 8.44441 40.6637C9.3376 40.1936 10.1368 39.3004 10.5128 38.7833C11.03 37.8431 11.406 34.7561 11.077 33.5652C10.8732 32.7504 10.0709 31.0173 8.4914 30.6036C6.91189 30.1899 5.51409 30.776 5.01266 31.1207C4.43287 31.6221 3.42372 32.7284 4.02545 33.1421C4.89043 32.578 5.82747 32.7504 6.18788 32.9071C6.51696 33.0167 7.30677 33.5088 7.83325 34.5994C8.35979 35.6901 7.89594 36.8403 7.59821 37.279C6.88366 38.2944 6.01552 38.611 5.6708 38.6423C5.21636 38.7677 4.03485 38.8868 2.94422 38.3603C1.85358 37.8337 1.58092 36.5739 1.58092 36.0098Z" fill="white"/>
</g>
<defs>
<clipPath id="clip0_603_15">
<rect width="51" height="41.5922" fill="white"/>
</clipPath>
</defs>
</svg>
