<svg width="37" height="37" viewBox="0 0 37 37" fill="none" xmlns="http://www.w3.org/2000/svg">
<path d="M8.98476 8.32617L9.71944 4.65282C10.0279 3.11032 11.3823 2 12.9554 2H24.0447C25.6178 2 26.9721 3.11032 27.2806 4.65282L28.0152 8.32617C28.2502 9.50098 29.141 10.4353 30.3033 10.7258C33.0636 11.4159 35 13.896 35 16.7413V28.4C35 32.045 32.045 35 28.4 35H8.6C4.95492 35 2 32.045 2 28.4V16.7413C2 13.896 3.93639 11.4159 6.69664 10.7258C7.85895 10.4353 8.7498 9.50098 8.98476 8.32617Z" stroke="black" stroke-width="3.3" stroke-linecap="round" stroke-linejoin="round"/>
<path d="M18.5009 28.4C22.146 28.4 25.1009 25.445 25.1009 21.8C25.1009 18.1549 22.146 15.2 18.5009 15.2C14.8558 15.2 11.9009 18.1549 11.9009 21.8C11.9009 25.445 14.8558 28.4 18.5009 28.4Z" stroke="black" stroke-width="3.3" stroke-linecap="round" stroke-linejoin="round"/>
<path d="M16.8501 8.59985H20.1501" stroke="black" stroke-width="3.3" stroke-linecap="round" stroke-linejoin="round"/>
</svg>
